# xmcd CD database file
#
# Track frame offsets:
#       150
#       13608
#       31618
#       43267
#       64710
#       80462
#       96601
#       116665
#       128892
#       145749
#
# Disc length: 2118 seconds
#
# Revision: 0
# Processed by: cddbd v1.5.2PL0 Copyright (c) Steve Scherf et al.
# Submitted via: jack 3.1.1
#
DISCID=8408440a
DTITLE=Woodbend - all for you
DYEAR=2008
DGENRE=Bluegrass
TTITLE0=All For You
TTITLE1=Hibriten Mountain
TTITLE2=A Little Unfair
TTITLE3=House of Gold
TTITLE4=Whiskey Before Breakfast
TTITLE5=Where Corn Don't Grow
TTITLE6=Walk The Way The Wind Blows
TTITLE7=Heartbreakin' Old Achin' Blues
TTITLE8=Roseville Fair
TTITLE9=Ragtime Annie
EXTD=
EXTT0=
EXTT1=
EXTT2=
EXTT3=
EXTT4=
EXTT5=
EXTT6=
EXTT7=
EXTT8=
EXTT9=
PLAYORDER=
